<svg id="Layer_1" data-name="Layer 1" xmlns="http://www.w3.org/2000/svg" viewBox="230 230 3216 1024"><defs><style>.cls-1{fill:#c8fa64;}.cls-2{fill:#fff;}</style></defs><title>landscape-transparent</title><path class="cls-1" d="M356.22,597.33a86.16,86.16,0,0,1,35,33.23q13,21.84,13,51.59v24.69q0,29.75-13,51.59a86.21,86.21,0,0,1-35,33.23q-22,11.39-48.9,11.39H225V585.94h82.29Q334.22,585.94,356.22,597.33ZM274.09,764.13h33.23q20.25,0,32.92-13.14T352.9,713.8V675.19q0-24-12.66-37.18t-32.92-13.14H274.09Z"/><path class="cls-1" d="M703.41,719.81v83.24H654.66V719.81L580.29,585.94h55.07L680.62,672h1.58l45.26-86.09h50Z"/><path class="cls-1" d="M1023.69,703q-3.48-5.06-9.5-15l-7.91-13.13-1.26.95V803.05H960.39V585.94h41.46l68.36,100.64,9.5,14.88q5.06,8.87,7.91,13l1-1V585.94h44.63V803.05h-41.46Z"/><path class="cls-1" d="M1455.86,760.32h-86.4l-15.19,42.73h-47.16l78.81-217.12h58.23L1523,803.05h-51.27Zm-73.11-37h60.13q-12-35.76-29.12-85.13h-1.58Z"/><path class="cls-1" d="M1834.81,803.2V643.37h-1.58l-25.79,114h-51.27l-25.79-114h-1.58V803.2h-44.31V586.09h75l21.92,109h1.27l25.91-109h75V803.2Z"/><path class="cls-1" d="M2075.36,586.09h153.46V625h-52V764.28h52V803.2H2075.36V764.28h52.36V625h-52.36Z"/><path class="cls-1" d="M2491.69,754.31q13,13.14,32.92,13.13,22.46,0,33.23-12.19t10.76-37.5h44.63q0,27.85-11.24,47.95a74.39,74.39,0,0,1-30.86,30.38q-19.63,10.29-44.31,10.29h-4.43q-27.22,0-48.74-11.08a81,81,0,0,1-33.87-32.76q-12.34-21.68-12.34-52.38v-31q0-29.74,12.34-51.59a83,83,0,0,1,33.71-33.23q21.36-11.4,47.63-11.4h4.43q25.32,0,45.1,10A73.18,73.18,0,0,1,2601.82,623q11.39,20.1,11.39,49.21h-46.53q0-24.69-10.92-37.5t-31.49-12.82q-19.94,0-32.76,13.14t-12.82,37.19v44.94Q2478.71,741.17,2491.69,754.31Z"/><path class="cls-1" d="M2935.27,647.49q0-12-9.5-18.83t-26.27-6.81q-17.41,0-27.06,5.54t-9.66,14.72a16.65,16.65,0,0,0,6,13.13,45.28,45.28,0,0,0,15.35,8.39q9.33,3.17,25.48,7,23.73,5.7,39.09,11.71A66.08,66.08,0,0,1,2975,701q10.92,12.66,10.92,33.87,0,37-23.89,54.28t-65.67,17.25q-38,0-62.82-16.62t-24.85-50.48l.32-7h46.21l-.32,5.06q0,13.93,10.44,22t29.44,8.07q22.14,0,31.8-7t9.66-17.72a17.21,17.21,0,0,0-5.86-13.45,42,42,0,0,0-14.88-8.23q-9-3-25.16-6.8-24.06-6-39.25-12a65,65,0,0,1-26.27-19.31q-11.08-13.29-11.08-35.76,0-20.89,11.39-35.45T2855.67,590q19.15-7.12,42.88-7.12,36.39,0,59.5,16t23.11,47.63v3.8h-45.89Z"/><path class="cls-2" d="M376.34,243.86q19.32,14.2,19.31,39,0,22.12-11.72,37.63T355,339.27v1.65q15.85,6.27,26.08,21.79T391.36,400q0,18.16,2,27.4t5.28,12.87a21.21,21.21,0,0,0,9.57,5.61v9.24a40.61,40.61,0,0,1-15.51,3q-15.85,0-24.76-9.41T359,413.22q0-26.74-11.06-41.76t-27.56-15H262.94v99.7H230.59V229.67H327Q357,229.67,376.34,243.86ZM262.94,259v68h64.38a36.86,36.86,0,0,0,25.09-9.57,30.36,30.36,0,0,0,10.89-23.77v-1.32q0-14.52-9.9-23.93T327.32,259Z"/><path class="cls-2" d="M758.16,229.67,753.86,259H642v66.69H743.3v29.38H642v71.63H755.84l4.62,29.38H609.6V229.67Z"/><path class="cls-2" d="M1094.58,236.6a72,72,0,0,1,30.2,29q10.56,18.82,10.56,43.58H1103q0-25.41-14-39.45t-40.44-14q-29.71,0-45.22,18.32t-15.52,54v29.71q0,35.65,15.35,54t45.39,18.32q28.72,0,41.93-14.36T1103.66,370v-4.29h-64V336.63h95.74v77.25q0,27.4,2,42.25h-19.15a200.94,200.94,0,0,1-6.6-27.07q-21.46,30.37-63.05,30.37-43.91,0-68.5-26.91t-24.59-74.77V328q0-47.53,24.59-74.6t68.5-27.07Q1074.94,226.37,1094.58,236.6Z"/><path class="cls-2" d="M1497.59,229.67V259h-65.1v167.7h65.1v29.38H1335V426.75h65.1V259H1335V229.67Z"/><path class="cls-2" d="M1840.23,243.86q21.29,16.5,21.29,46.88v4h-32.35v-4.95q0-15.85-12.88-24.43t-34-8.58q-23.44,0-36.48,7.76t-13,22.29q0,10.89,7.43,17.83a52.76,52.76,0,0,0,18.49,10.89q11.06,4,30.54,8.92,25.08,6.61,40.6,12.88a69.86,69.86,0,0,1,26.58,18.82q11.05,12.55,11.06,33.34,0,37-22.61,54t-63.55,17q-40.94,0-63.55-17.33t-22.61-50.34l.33-6.6h32.35l-.33,6.93q0,19.16,14.36,28.56t39.78,9.41q24.76,0,39.12-9.08T1835.11,397q0-12.55-7.76-20.31a52.81,52.81,0,0,0-19.48-12.05q-11.72-4.28-31.86-9.57-24.76-6.61-39.61-12.55A64.4,64.4,0,0,1,1711,324.25q-10.57-12.38-10.56-32.52,0-32.68,22.12-48.53t59.09-15.85Q1818.94,227.35,1840.23,243.86Z"/><path class="cls-2" d="M2238.23,230.65V260h-71V457.12H2134.9V260h-71V230.65Z"/><path class="cls-2" d="M2601.72,230.65,2597.43,260H2485.52v66.69h101.35v29.38H2485.52v71.63h113.89l4.62,29.38H2453.17V230.65Z"/><path class="cls-2" d="M2959.11,244.85q19.32,14.19,19.31,39,0,22.12-11.72,37.63t-28.89,18.82v1.65q15.85,6.28,26.08,21.79T2974.13,401q0,18.16,2,27.4t5.28,12.87a21.21,21.21,0,0,0,9.57,5.61v9.24a40.61,40.61,0,0,1-15.51,3q-15.85,0-24.76-9.41t-8.91-35.49q0-26.74-11.06-41.76t-27.56-15h-57.44v99.7h-32.35V230.65h96.39Q2939.79,230.65,2959.11,244.85ZM2845.71,260v68h64.38a36.85,36.85,0,0,0,25.09-9.57,30.36,30.36,0,0,0,10.89-23.77v-1.32q0-14.52-9.9-23.93T2910.09,260Z"/></svg>
